<?xml version="1.0" encoding="UTF-8" standalone="no"?>
<!DOCTYPE svg PUBLIC "-//W3C//DTD SVG 1.1//EN"
 "http://www.w3.org/Graphics/SVG/1.1/DTD/svg11.dtd">
<!-- Generated by graphviz version 2.40.1 (20161225.0304)
 -->
<!-- Title: models_diagram Pages: 1 -->
<svg width="1851pt" height="889pt"
 viewBox="0.00 0.00 1850.61 889.49" xmlns="http://www.w3.org/2000/svg" xmlns:xlink="http://www.w3.org/1999/xlink">
<g id="graph0" class="graph" transform="scale(1 1) rotate(0) translate(36 853.4887)">
<title>models_diagram</title>
<polygon fill="#ffffff" stroke="transparent" points="-36,36 -36,-853.4887 1814.6086,-853.4887 1814.6086,36 -36,36"/>
<!-- Allcode -->
<g id="node1" class="node">
<title>Allcode</title>
<polygon fill="#add8e6" stroke="transparent" points="643.4014,-469.2443 643.4014,-491.2443 727.4014,-491.2443 727.4014,-469.2443 643.4014,-469.2443"/>
<polygon fill="none" stroke="#000000" points="643.4014,-469.2443 643.4014,-491.2443 727.4014,-491.2443 727.4014,-469.2443 643.4014,-469.2443"/>
<text text-anchor="start" x="669.5739" y="-478.2443" font-family="Times,serif" font-weight="bold" font-size="10.00" fill="#000000">Allcode</text>
<polygon fill="none" stroke="#000000" points="643.4014,-447.2443 643.4014,-469.2443 727.4014,-469.2443 727.4014,-447.2443 643.4014,-447.2443"/>
<text text-anchor="start" x="648.4014" y="-456.2443" font-family="Times,serif" text-decoration="underline" font-size="10.00" fill="#000000">id</text>
<text text-anchor="start" x="656.1804" y="-456.2443" font-family="Times,serif" font-size="10.00" fill="#000000">: NUMBER</text>
<polygon fill="none" stroke="#000000" points="643.4014,-425.2443 643.4014,-447.2443 727.4014,-447.2443 727.4014,-425.2443 643.4014,-425.2443"/>
<text text-anchor="start" x="648.3264" y="-433.2443" font-family="Times,serif" font-size="10.00" fill="#000000">keyMap: STRING</text>
<polygon fill="none" stroke="#000000" points="643.4014,-403.2443 643.4014,-425.2443 727.4014,-425.2443 727.4014,-403.2443 643.4014,-403.2443"/>
<text text-anchor="start" x="648.4014" y="-411.2443" font-family="Times,serif" font-size="10.00" fill="#000000">type: STRING</text>
<polygon fill="none" stroke="#000000" points="643.4014,-381.2443 643.4014,-403.2443 727.4014,-403.2443 727.4014,-381.2443 643.4014,-381.2443"/>
<text text-anchor="start" x="648.4014" y="-389.2443" font-family="Times,serif" font-size="10.00" fill="#000000">value: STRING</text>
<polygon fill="none" stroke="#000000" points="643.4014,-359.2443 643.4014,-381.2443 727.4014,-381.2443 727.4014,-359.2443 643.4014,-359.2443"/>
<text text-anchor="start" x="648.4014" y="-367.2443" font-family="Times,serif" font-size="10.00" fill="#000000">createdAt: DATE</text>
<polygon fill="none" stroke="#000000" points="643.4014,-337.2443 643.4014,-359.2443 727.4014,-359.2443 727.4014,-337.2443 643.4014,-337.2443"/>
<text text-anchor="start" x="648.4014" y="-345.2443" font-family="Times,serif" font-size="10.00" fill="#000000">updatedAt: DATE</text>
</g>
<!-- Booking -->
<g id="node2" class="node">
<title>Booking</title>
<polygon fill="#add8e6" stroke="transparent" points="910.4014,-513.2443 910.4014,-535.2443 1001.4014,-535.2443 1001.4014,-513.2443 910.4014,-513.2443"/>
<polygon fill="none" stroke="#000000" points="910.4014,-513.2443 910.4014,-535.2443 1001.4014,-535.2443 1001.4014,-513.2443 910.4014,-513.2443"/>
<text text-anchor="start" x="938.6774" y="-522.2443" font-family="Times,serif" font-weight="bold" font-size="10.00" fill="#000000">Booking</text>
<polygon fill="none" stroke="#000000" points="910.4014,-491.2443 910.4014,-513.2443 1001.4014,-513.2443 1001.4014,-491.2443 910.4014,-491.2443"/>
<text text-anchor="start" x="915.4014" y="-500.2443" font-family="Times,serif" text-decoration="underline" font-size="10.00" fill="#000000">id</text>
<text text-anchor="start" x="923.1804" y="-500.2443" font-family="Times,serif" font-size="10.00" fill="#000000">: NUMBER</text>
<polygon fill="none" stroke="#000000" points="910.4014,-469.2443 910.4014,-491.2443 1001.4014,-491.2443 1001.4014,-469.2443 910.4014,-469.2443"/>
<text text-anchor="start" x="915.4014" y="-478.2443" font-family="Times,serif" font-style="italic" text-decoration="underline" font-size="10.00" fill="#000000">statusId</text>
<text text-anchor="start" x="946.5054" y="-478.2443" font-family="Times,serif" font-size="10.00" fill="#000000">: STRING</text>
<polygon fill="none" stroke="#000000" points="910.4014,-447.2443 910.4014,-469.2443 1001.4014,-469.2443 1001.4014,-447.2443 910.4014,-447.2443"/>
<text text-anchor="start" x="914.9369" y="-456.2443" font-family="Times,serif" font-style="italic" text-decoration="underline" font-size="10.00" fill="#000000">doctorId</text>
<text text-anchor="start" x="948.8129" y="-456.2443" font-family="Times,serif" font-size="10.00" fill="#000000">: NUMBER</text>
<polygon fill="none" stroke="#000000" points="910.4014,-425.2443 910.4014,-447.2443 1001.4014,-447.2443 1001.4014,-425.2443 910.4014,-425.2443"/>
<text text-anchor="start" x="915.4014" y="-434.2443" font-family="Times,serif" font-style="italic" text-decoration="underline" font-size="10.00" fill="#000000">patientId</text>
<text text-anchor="start" x="950.9454" y="-434.2443" font-family="Times,serif" font-size="10.00" fill="#000000">: STRING</text>
<polygon fill="none" stroke="#000000" points="910.4014,-403.2443 910.4014,-425.2443 1001.4014,-425.2443 1001.4014,-403.2443 910.4014,-403.2443"/>
<text text-anchor="start" x="915.4014" y="-411.2443" font-family="Times,serif" font-size="10.00" fill="#000000">date: DATE</text>
<polygon fill="none" stroke="#000000" points="910.4014,-381.2443 910.4014,-403.2443 1001.4014,-403.2443 1001.4014,-381.2443 910.4014,-381.2443"/>
<text text-anchor="start" x="915.4014" y="-390.2443" font-family="Times,serif" font-style="italic" text-decoration="underline" font-size="10.00" fill="#000000">timeType</text>
<text text-anchor="start" x="953.7254" y="-390.2443" font-family="Times,serif" font-size="10.00" fill="#000000">: STRING</text>
<polygon fill="none" stroke="#000000" points="910.4014,-359.2443 910.4014,-381.2443 1001.4014,-381.2443 1001.4014,-359.2443 910.4014,-359.2443"/>
<text text-anchor="start" x="915.4014" y="-367.2443" font-family="Times,serif" font-size="10.00" fill="#000000">reason: TEXT</text>
<polygon fill="none" stroke="#000000" points="910.4014,-337.2443 910.4014,-359.2443 1001.4014,-359.2443 1001.4014,-337.2443 910.4014,-337.2443"/>
<text text-anchor="start" x="915.4014" y="-345.2443" font-family="Times,serif" font-size="10.00" fill="#000000">result: STRING</text>
<polygon fill="none" stroke="#000000" points="910.4014,-315.2443 910.4014,-337.2443 1001.4014,-337.2443 1001.4014,-315.2443 910.4014,-315.2443"/>
<text text-anchor="start" x="915.4014" y="-323.2443" font-family="Times,serif" font-size="10.00" fill="#000000">createdAt: DATE</text>
<polygon fill="none" stroke="#000000" points="910.4014,-293.2443 910.4014,-315.2443 1001.4014,-315.2443 1001.4014,-293.2443 910.4014,-293.2443"/>
<text text-anchor="start" x="915.4014" y="-301.2443" font-family="Times,serif" font-size="10.00" fill="#000000">updatedAt: DATE</text>
</g>
<!-- Booking&#45;&gt;Allcode -->
<g id="edge2" class="edge">
<title>Booking&#45;&gt;Allcode</title>
<path fill="none" stroke="#000000" stroke-width=".75" d="M903.4856,-414.2443C852.2585,-414.2443 774.9157,-414.2443 727.4245,-414.2443"/>
<polygon fill="#000000" stroke="#000000" stroke-width=".75" points="903.5996,-414.2444 909.5997,-416.9443 906.5996,-414.2444 909.5996,-414.2443 909.5996,-414.2443 909.5996,-414.2443 906.5996,-414.2444 909.5996,-411.5443 903.5996,-414.2444 903.5996,-414.2444"/>
</g>
<!-- User -->
<g id="node9" class="node">
<title>User</title>
<polygon fill="#add8e6" stroke="transparent" points="1094.4014,-557.2443 1094.4014,-579.2443 1202.4014,-579.2443 1202.4014,-557.2443 1094.4014,-557.2443"/>
<polygon fill="none" stroke="#000000" points="1094.4014,-557.2443 1094.4014,-579.2443 1202.4014,-579.2443 1202.4014,-557.2443 1094.4014,-557.2443"/>
<text text-anchor="start" x="1138.9634" y="-566.2443" font-family="Times,serif" font-weight="bold" font-size="10.00" fill="#000000">User</text>
<polygon fill="none" stroke="#000000" points="1094.4014,-535.2443 1094.4014,-557.2443 1202.4014,-557.2443 1202.4014,-535.2443 1094.4014,-535.2443"/>
<text text-anchor="start" x="1099.4014" y="-544.2443" font-family="Times,serif" text-decoration="underline" font-size="10.00" fill="#000000">id</text>
<text text-anchor="start" x="1107.1804" y="-544.2443" font-family="Times,serif" font-size="10.00" fill="#000000">: NUMBER</text>
<polygon fill="none" stroke="#000000" points="1094.4014,-513.2443 1094.4014,-535.2443 1202.4014,-535.2443 1202.4014,-513.2443 1094.4014,-513.2443"/>
<text text-anchor="start" x="1099.4014" y="-521.2443" font-family="Times,serif" font-size="10.00" fill="#000000">email: STRING</text>
<polygon fill="none" stroke="#000000" points="1094.4014,-491.2443 1094.4014,-513.2443 1202.4014,-513.2443 1202.4014,-491.2443 1094.4014,-491.2443"/>
<text text-anchor="start" x="1099.4014" y="-499.2443" font-family="Times,serif" font-size="10.00" fill="#000000">password: STRING</text>
<polygon fill="none" stroke="#000000" points="1094.4014,-469.2443 1094.4014,-491.2443 1202.4014,-491.2443 1202.4014,-469.2443 1094.4014,-469.2443"/>
<text text-anchor="start" x="1099.4014" y="-477.2443" font-family="Times,serif" font-size="10.00" fill="#000000">firstName: STRING</text>
<polygon fill="none" stroke="#000000" points="1094.4014,-447.2443 1094.4014,-469.2443 1202.4014,-469.2443 1202.4014,-447.2443 1094.4014,-447.2443"/>
<text text-anchor="start" x="1099.4014" y="-455.2443" font-family="Times,serif" font-size="10.00" fill="#000000">lastName: STRING</text>
<polygon fill="none" stroke="#000000" points="1094.4014,-425.2443 1094.4014,-447.2443 1202.4014,-447.2443 1202.4014,-425.2443 1094.4014,-425.2443"/>
<text text-anchor="start" x="1099.4014" y="-433.2443" font-family="Times,serif" font-size="10.00" fill="#000000">address: STRING</text>
<polygon fill="none" stroke="#000000" points="1094.4014,-403.2443 1094.4014,-425.2443 1202.4014,-425.2443 1202.4014,-403.2443 1094.4014,-403.2443"/>
<text text-anchor="start" x="1099.1074" y="-411.2443" font-family="Times,serif" font-size="10.00" fill="#000000">phoneNumber: STRING</text>
<polygon fill="none" stroke="#000000" points="1094.4014,-381.2443 1094.4014,-403.2443 1202.4014,-403.2443 1202.4014,-381.2443 1094.4014,-381.2443"/>
<text text-anchor="start" x="1099.4014" y="-389.2443" font-family="Times,serif" font-size="10.00" fill="#000000">yearOfBirth: STRING</text>
<polygon fill="none" stroke="#000000" points="1094.4014,-359.2443 1094.4014,-381.2443 1202.4014,-381.2443 1202.4014,-359.2443 1094.4014,-359.2443"/>
<text text-anchor="start" x="1099.4014" y="-368.2443" font-family="Times,serif" font-style="italic" text-decoration="underline" font-size="10.00" fill="#000000">gender</text>
<text text-anchor="start" x="1126.6084" y="-368.2443" font-family="Times,serif" font-size="10.00" fill="#000000">: STRING</text>
<polygon fill="none" stroke="#000000" points="1094.4014,-337.2443 1094.4014,-359.2443 1202.4014,-359.2443 1202.4014,-337.2443 1094.4014,-337.2443"/>
<text text-anchor="start" x="1099.4014" y="-345.2443" font-family="Times,serif" font-size="10.00" fill="#000000">image: STRING</text>
<polygon fill="none" stroke="#000000" points="1094.4014,-315.2443 1094.4014,-337.2443 1202.4014,-337.2443 1202.4014,-315.2443 1094.4014,-315.2443"/>
<text text-anchor="start" x="1099.4014" y="-323.2443" font-family="Times,serif" font-size="10.00" fill="#000000">roleId: STRING</text>
<polygon fill="none" stroke="#000000" points="1094.4014,-293.2443 1094.4014,-315.2443 1202.4014,-315.2443 1202.4014,-293.2443 1094.4014,-293.2443"/>
<text text-anchor="start" x="1099.4014" y="-302.2443" font-family="Times,serif" font-style="italic" text-decoration="underline" font-size="10.00" fill="#000000">positionId</text>
<text text-anchor="start" x="1139.9564" y="-302.2443" font-family="Times,serif" font-size="10.00" fill="#000000">: STRING</text>
<polygon fill="none" stroke="#000000" points="1094.4014,-271.2443 1094.4014,-293.2443 1202.4014,-293.2443 1202.4014,-271.2443 1094.4014,-271.2443"/>
<text text-anchor="start" x="1099.4014" y="-279.2443" font-family="Times,serif" font-size="10.00" fill="#000000">createdAt: DATE</text>
<polygon fill="none" stroke="#000000" points="1094.4014,-249.2443 1094.4014,-271.2443 1202.4014,-271.2443 1202.4014,-249.2443 1094.4014,-249.2443"/>
<text text-anchor="start" x="1099.4014" y="-257.2443" font-family="Times,serif" font-size="10.00" fill="#000000">updatedAt: DATE</text>
</g>
<!-- Booking&#45;&gt;User -->
<g id="edge1" class="edge">
<title>Booking&#45;&gt;User</title>
<path fill="none" stroke="#000000" stroke-width=".75" d="M1007.4692,-414.2443C1034.2803,-414.2443 1066.9453,-414.2443 1094.0743,-414.2443"/>
<polygon fill="#000000" stroke="#000000" stroke-width=".75" points="1007.1397,-414.2444 1001.1398,-411.5443 1004.1397,-414.2444 1001.1397,-414.2443 1001.1397,-414.2443 1001.1397,-414.2443 1004.1397,-414.2444 1001.1397,-416.9443 1007.1397,-414.2444 1007.1397,-414.2444"/>
</g>
<!-- Clinic -->
<g id="node3" class="node">
<title>Clinic</title>
<polygon fill="#add8e6" stroke="transparent" points="1315.4479,-795.4887 1315.4479,-817.4887 1423.4479,-817.4887 1423.4479,-795.4887 1315.4479,-795.4887"/>
<polygon fill="none" stroke="#000000" points="1315.4479,-795.4887 1315.4479,-817.4887 1423.4479,-817.4887 1423.4479,-795.4887 1315.4479,-795.4887"/>
<text text-anchor="start" x="1357.2254" y="-804.4887" font-family="Times,serif" font-weight="bold" font-size="10.00" fill="#000000">Clinic</text>
<polygon fill="none" stroke="#000000" points="1315.4479,-773.4887 1315.4479,-795.4887 1423.4479,-795.4887 1423.4479,-773.4887 1315.4479,-773.4887"/>
<text text-anchor="start" x="1320.4479" y="-782.4887" font-family="Times,serif" text-decoration="underline" font-size="10.00" fill="#000000">id</text>
<text text-anchor="start" x="1328.2269" y="-782.4887" font-family="Times,serif" font-size="10.00" fill="#000000">: NUMBER</text>
<polygon fill="none" stroke="#000000" points="1315.4479,-751.4887 1315.4479,-773.4887 1423.4479,-773.4887 1423.4479,-751.4887 1315.4479,-751.4887"/>
<text text-anchor="start" x="1320.4479" y="-759.4887" font-family="Times,serif" font-size="10.00" fill="#000000">name: STRING</text>
<polygon fill="none" stroke="#000000" points="1315.4479,-729.4887 1315.4479,-751.4887 1423.4479,-751.4887 1423.4479,-729.4887 1315.4479,-729.4887"/>
<text text-anchor="start" x="1320.4479" y="-737.4887" font-family="Times,serif" font-size="10.00" fill="#000000">address: STRING</text>
<polygon fill="none" stroke="#000000" points="1315.4479,-707.4887 1315.4479,-729.4887 1423.4479,-729.4887 1423.4479,-707.4887 1315.4479,-707.4887"/>
<text text-anchor="start" x="1320.1539" y="-715.4887" font-family="Times,serif" font-size="10.00" fill="#000000">phoneNumber: STRING</text>
<polygon fill="none" stroke="#000000" points="1315.4479,-685.4887 1315.4479,-707.4887 1423.4479,-707.4887 1423.4479,-685.4887 1315.4479,-685.4887"/>
<text text-anchor="start" x="1320.4479" y="-693.4887" font-family="Times,serif" font-size="10.00" fill="#000000">image: STRING</text>
<polygon fill="none" stroke="#000000" points="1315.4479,-663.4887 1315.4479,-685.4887 1423.4479,-685.4887 1423.4479,-663.4887 1315.4479,-663.4887"/>
<text text-anchor="start" x="1320.4479" y="-671.4887" font-family="Times,serif" font-size="10.00" fill="#000000">logo: STRING</text>
<polygon fill="none" stroke="#000000" points="1315.4479,-641.4887 1315.4479,-663.4887 1423.4479,-663.4887 1423.4479,-641.4887 1315.4479,-641.4887"/>
<text text-anchor="start" x="1320.4479" y="-649.4887" font-family="Times,serif" font-size="10.00" fill="#000000">createdAt: DATE</text>
<polygon fill="none" stroke="#000000" points="1315.4479,-619.4887 1315.4479,-641.4887 1423.4479,-641.4887 1423.4479,-619.4887 1315.4479,-619.4887"/>
<text text-anchor="start" x="1320.4479" y="-627.4887" font-family="Times,serif" font-size="10.00" fill="#000000">updatedAt: DATE</text>
</g>
<!-- Doctor_Info -->
<g id="node4" class="node">
<title>Doctor_Info</title>
<polygon fill="#add8e6" stroke="transparent" points="1676.1086,-690.2777 1676.1086,-712.2777 1779.1086,-712.2777 1779.1086,-690.2777 1676.1086,-690.2777"/>
<polygon fill="none" stroke="#000000" points="1676.1086,-690.2777 1676.1086,-712.2777 1779.1086,-712.2777 1779.1086,-690.2777 1676.1086,-690.2777"/>
<text text-anchor="start" x="1702.8966" y="-699.2777" font-family="Times,serif" font-weight="bold" font-size="10.00" fill="#000000">Doctor_Info</text>
<polygon fill="none" stroke="#000000" points="1676.1086,-668.2777 1676.1086,-690.2777 1779.1086,-690.2777 1779.1086,-668.2777 1676.1086,-668.2777"/>
<text text-anchor="start" x="1681.1086" y="-677.2777" font-family="Times,serif" text-decoration="underline" font-size="10.00" fill="#000000">id</text>
<text text-anchor="start" x="1688.8876" y="-677.2777" font-family="Times,serif" font-size="10.00" fill="#000000">: NUMBER</text>
<polygon fill="none" stroke="#000000" points="1676.1086,-646.2777 1676.1086,-668.2777 1779.1086,-668.2777 1779.1086,-646.2777 1676.1086,-646.2777"/>
<text text-anchor="start" x="1681.1086" y="-655.2777" font-family="Times,serif" font-style="italic" text-decoration="underline" font-size="10.00" fill="#000000">doctorId</text>
<text text-anchor="start" x="1714.9846" y="-655.2777" font-family="Times,serif" font-size="10.00" fill="#000000">: NUMBER</text>
<polygon fill="none" stroke="#000000" points="1676.1086,-624.2777 1676.1086,-646.2777 1779.1086,-646.2777 1779.1086,-624.2777 1676.1086,-624.2777"/>
<text text-anchor="start" x="1681.1086" y="-633.2777" font-family="Times,serif" font-style="italic" text-decoration="underline" font-size="10.00" fill="#000000">clinicId</text>
<text text-anchor="start" x="1711.6526" y="-633.2777" font-family="Times,serif" font-size="10.00" fill="#000000">: NUMBER</text>
<polygon fill="none" stroke="#000000" points="1676.1086,-602.2777 1676.1086,-624.2777 1779.1086,-624.2777 1779.1086,-602.2777 1676.1086,-602.2777"/>
<text text-anchor="start" x="1680.8121" y="-611.2777" font-family="Times,serif" font-style="italic" text-decoration="underline" font-size="10.00" fill="#000000">specialistId</text>
<text text-anchor="start" x="1726.3521" y="-611.2777" font-family="Times,serif" font-size="10.00" fill="#000000">: NUMBER</text>
<polygon fill="none" stroke="#000000" points="1676.1086,-580.2777 1676.1086,-602.2777 1779.1086,-602.2777 1779.1086,-580.2777 1676.1086,-580.2777"/>
<text text-anchor="start" x="1681.1086" y="-588.2777" font-family="Times,serif" font-size="10.00" fill="#000000">price: NUMBER</text>
<polygon fill="none" stroke="#000000" points="1676.1086,-558.2777 1676.1086,-580.2777 1779.1086,-580.2777 1779.1086,-558.2777 1676.1086,-558.2777"/>
<text text-anchor="start" x="1681.1086" y="-566.2777" font-family="Times,serif" font-size="10.00" fill="#000000">note: STRING</text>
<polygon fill="none" stroke="#000000" points="1676.1086,-536.2777 1676.1086,-558.2777 1779.1086,-558.2777 1779.1086,-536.2777 1676.1086,-536.2777"/>
<text text-anchor="start" x="1681.1086" y="-544.2777" font-family="Times,serif" font-size="10.00" fill="#000000">count: NUMBER</text>
<polygon fill="none" stroke="#000000" points="1676.1086,-514.2777 1676.1086,-536.2777 1779.1086,-536.2777 1779.1086,-514.2777 1676.1086,-514.2777"/>
<text text-anchor="start" x="1681.1086" y="-522.2777" font-family="Times,serif" font-size="10.00" fill="#000000">createdAt: DATE</text>
<polygon fill="none" stroke="#000000" points="1676.1086,-492.2777 1676.1086,-514.2777 1779.1086,-514.2777 1779.1086,-492.2777 1676.1086,-492.2777"/>
<text text-anchor="start" x="1681.1086" y="-500.2777" font-family="Times,serif" font-size="10.00" fill="#000000">updatedAt: DATE</text>
</g>
<!-- Doctor_Info&#45;&gt;Clinic -->
<g id="edge4" class="edge">
<title>Doctor_Info&#45;&gt;Clinic</title>
<path fill="none" stroke="#000000" stroke-width=".75" d="M1669.4674,-621.0065C1601.6697,-643.0353 1489.9837,-679.3242 1423.6933,-700.8633"/>
<polygon fill="#000000" stroke="#000000" stroke-width=".75" points="1669.7773,-620.9058 1676.318,-621.6195 1672.6304,-619.9787 1675.4836,-619.0517 1675.4836,-619.0517 1675.4836,-619.0517 1672.6304,-619.9787 1674.6492,-616.4838 1669.7773,-620.9058 1669.7773,-620.9058"/>
</g>
<!-- Specialist -->
<g id="node8" class="node">
<title>Specialist</title>
<polygon fill="#add8e6" stroke="transparent" points="1686.1086,-270.211 1686.1086,-292.211 1769.1086,-292.211 1769.1086,-270.211 1686.1086,-270.211"/>
<polygon fill="none" stroke="#000000" points="1686.1086,-270.211 1686.1086,-292.211 1769.1086,-292.211 1769.1086,-270.211 1686.1086,-270.211"/>
<text text-anchor="start" x="1708.1681" y="-279.211" font-family="Times,serif" font-weight="bold" font-size="10.00" fill="#000000">Specialist</text>
<polygon fill="none" stroke="#000000" points="1686.1086,-248.211 1686.1086,-270.211 1769.1086,-270.211 1769.1086,-248.211 1686.1086,-248.211"/>
<text text-anchor="start" x="1691.1086" y="-257.211" font-family="Times,serif" text-decoration="underline" font-size="10.00" fill="#000000">id</text>
<text text-anchor="start" x="1698.8876" y="-257.211" font-family="Times,serif" font-size="10.00" fill="#000000">: NUMBER</text>
<polygon fill="none" stroke="#000000" points="1686.1086,-226.211 1686.1086,-248.211 1769.1086,-248.211 1769.1086,-226.211 1686.1086,-226.211"/>
<text text-anchor="start" x="1691.1086" y="-234.211" font-family="Times,serif" font-size="10.00" fill="#000000">name: STRING</text>
<polygon fill="none" stroke="#000000" points="1686.1086,-204.211 1686.1086,-226.211 1769.1086,-226.211 1769.1086,-204.211 1686.1086,-204.211"/>
<text text-anchor="start" x="1691.1086" y="-212.211" font-family="Times,serif" font-size="10.00" fill="#000000">image: TEXT</text>
<polygon fill="none" stroke="#000000" points="1686.1086,-182.211 1686.1086,-204.211 1769.1086,-204.211 1769.1086,-182.211 1686.1086,-182.211"/>
<text text-anchor="start" x="1691.1086" y="-190.211" font-family="Times,serif" font-size="10.00" fill="#000000">createdAt: DATE</text>
<polygon fill="none" stroke="#000000" points="1686.1086,-160.211 1686.1086,-182.211 1769.1086,-182.211 1769.1086,-160.211 1686.1086,-160.211"/>
<text text-anchor="start" x="1690.8136" y="-168.211" font-family="Times,serif" font-size="10.00" fill="#000000">updatedAt: DATE</text>
</g>
<!-- Doctor_Info&#45;&gt;Specialist -->
<g id="edge5" class="edge">
<title>Doctor_Info&#45;&gt;Specialist</title>
<path fill="none" stroke="#000000" stroke-width=".75" d="M1727.1086,-486.1205C1727.1086,-422.4607 1727.1086,-345.862 1727.1086,-292.3758"/>
<polygon fill="#000000" stroke="#000000" stroke-width=".75" points="1727.1087,-486.2396 1724.4086,-492.2395 1727.1086,-489.2396 1727.1086,-492.2396 1727.1086,-492.2396 1727.1086,-492.2396 1727.1086,-489.2396 1729.8086,-492.2396 1727.1087,-486.2396 1727.1087,-486.2396"/>
</g>
<!-- Doctor_Info&#45;&gt;User -->
<g id="edge3" class="edge">
<title>Doctor_Info&#45;&gt;User</title>
<path fill="none" stroke="#000000" stroke-width=".75" d="M1675.4978,-585.5083C1566.4874,-550.0887 1313.6946,-467.9513 1202.5185,-431.828"/>
</g>
<!-- History -->
<g id="node5" class="node">
<title>History</title>
<polygon fill="#add8e6" stroke="transparent" points="658.4014,-248.2443 658.4014,-270.2443 751.4014,-270.2443 751.4014,-248.2443 658.4014,-248.2443"/>
<polygon fill="none" stroke="#000000" points="658.4014,-248.2443 658.4014,-270.2443 751.4014,-270.2443 751.4014,-248.2443 658.4014,-248.2443"/>
<text text-anchor="start" x="689.9039" y="-257.2443" font-family="Times,serif" font-weight="bold" font-size="10.00" fill="#000000">History</text>
<polygon fill="none" stroke="#000000" points="658.4014,-226.2443 658.4014,-248.2443 751.4014,-248.2443 751.4014,-226.2443 658.4014,-226.2443"/>
<text text-anchor="start" x="663.4014" y="-235.2443" font-family="Times,serif" text-decoration="underline" font-size="10.00" fill="#000000">id</text>
<text text-anchor="start" x="671.1804" y="-235.2443" font-family="Times,serif" font-size="10.00" fill="#000000">: NUMBER</text>
<polygon fill="none" stroke="#000000" points="658.4014,-204.2443 658.4014,-226.2443 751.4014,-226.2443 751.4014,-204.2443 658.4014,-204.2443"/>
<text text-anchor="start" x="663.3779" y="-212.2443" font-family="Times,serif" font-size="10.00" fill="#000000">patientid: NUMBER</text>
<polygon fill="none" stroke="#000000" points="658.4014,-182.2443 658.4014,-204.2443 751.4014,-204.2443 751.4014,-182.2443 658.4014,-182.2443"/>
<text text-anchor="start" x="663.4014" y="-190.2443" font-family="Times,serif" font-size="10.00" fill="#000000">doctorid: NUMBER</text>
<polygon fill="none" stroke="#000000" points="658.4014,-160.2443 658.4014,-182.2443 751.4014,-182.2443 751.4014,-160.2443 658.4014,-160.2443"/>
<text text-anchor="start" x="663.4014" y="-168.2443" font-family="Times,serif" font-size="10.00" fill="#000000">description: TEXT</text>
<polygon fill="none" stroke="#000000" points="658.4014,-138.2443 658.4014,-160.2443 751.4014,-160.2443 751.4014,-138.2443 658.4014,-138.2443"/>
<text text-anchor="start" x="663.4014" y="-146.2443" font-family="Times,serif" font-size="10.00" fill="#000000">file: TEXT</text>
<polygon fill="none" stroke="#000000" points="658.4014,-116.2443 658.4014,-138.2443 751.4014,-138.2443 751.4014,-116.2443 658.4014,-116.2443"/>
<text text-anchor="start" x="663.4014" y="-124.2443" font-family="Times,serif" font-size="10.00" fill="#000000">createdAt: DATE</text>
<polygon fill="none" stroke="#000000" points="658.4014,-94.2443 658.4014,-116.2443 751.4014,-116.2443 751.4014,-94.2443 658.4014,-94.2443"/>
<text text-anchor="start" x="663.4014" y="-102.2443" font-family="Times,serif" font-size="10.00" fill="#000000">updatedAt: DATE</text>
</g>
<!-- Markdown -->
<g id="node6" class="node">
<title>Markdown</title>
<polygon fill="#add8e6" stroke="transparent" points="1312.4479,-198 1312.4479,-220 1426.4479,-220 1426.4479,-198 1312.4479,-198"/>
<polygon fill="none" stroke="#000000" points="1312.4479,-198 1312.4479,-220 1426.4479,-220 1426.4479,-198 1312.4479,-198"/>
<text text-anchor="start" x="1347.5099" y="-207" font-family="Times,serif" font-weight="bold" font-size="10.00" fill="#000000">Markdown</text>
<polygon fill="none" stroke="#000000" points="1312.4479,-176 1312.4479,-198 1426.4479,-198 1426.4479,-176 1312.4479,-176"/>
<text text-anchor="start" x="1317.4479" y="-185" font-family="Times,serif" text-decoration="underline" font-size="10.00" fill="#000000">id</text>
<text text-anchor="start" x="1325.2269" y="-185" font-family="Times,serif" font-size="10.00" fill="#000000">: NUMBER</text>
<polygon fill="none" stroke="#000000" points="1312.4479,-154 1312.4479,-176 1426.4479,-176 1426.4479,-154 1312.4479,-154"/>
<text text-anchor="start" x="1317.4479" y="-162" font-family="Times,serif" font-size="10.00" fill="#000000">contentHTML: TEXT</text>
<polygon fill="none" stroke="#000000" points="1312.4479,-132 1312.4479,-154 1426.4479,-154 1426.4479,-132 1312.4479,-132"/>
<text text-anchor="start" x="1317.3794" y="-140" font-family="Times,serif" font-size="10.00" fill="#000000">contentMarkdown: TEXT</text>
<polygon fill="none" stroke="#000000" points="1312.4479,-110 1312.4479,-132 1426.4479,-132 1426.4479,-110 1312.4479,-110"/>
<text text-anchor="start" x="1317.4479" y="-118" font-family="Times,serif" font-size="10.00" fill="#000000">description: TEXT</text>
<polygon fill="none" stroke="#000000" points="1312.4479,-88 1312.4479,-110 1426.4479,-110 1426.4479,-88 1312.4479,-88"/>
<text text-anchor="start" x="1317.4479" y="-97" font-family="Times,serif" font-style="italic" text-decoration="underline" font-size="10.00" fill="#000000">doctorId</text>
<text text-anchor="start" x="1351.3239" y="-97" font-family="Times,serif" font-size="10.00" fill="#000000">: NUMBER</text>
<polygon fill="none" stroke="#000000" points="1312.4479,-66 1312.4479,-88 1426.4479,-88 1426.4479,-66 1312.4479,-66"/>
<text text-anchor="start" x="1317.4479" y="-75" font-family="Times,serif" font-style="italic" text-decoration="underline" font-size="10.00" fill="#000000">specialistId</text>
<text text-anchor="start" x="1362.9879" y="-75" font-family="Times,serif" font-size="10.00" fill="#000000">: NUMBER</text>
<polygon fill="none" stroke="#000000" points="1312.4479,-44 1312.4479,-66 1426.4479,-66 1426.4479,-44 1312.4479,-44"/>
<text text-anchor="start" x="1317.4479" y="-53" font-family="Times,serif" font-style="italic" text-decoration="underline" font-size="10.00" fill="#000000">clinicId</text>
<text text-anchor="start" x="1347.9919" y="-53" font-family="Times,serif" font-size="10.00" fill="#000000">: NUMBER</text>
<polygon fill="none" stroke="#000000" points="1312.4479,-22 1312.4479,-44 1426.4479,-44 1426.4479,-22 1312.4479,-22"/>
<text text-anchor="start" x="1317.4479" y="-30" font-family="Times,serif" font-size="10.00" fill="#000000">createdAt: DATE</text>
<polygon fill="none" stroke="#000000" points="1312.4479,0 1312.4479,-22 1426.4479,-22 1426.4479,0 1312.4479,0"/>
<text text-anchor="start" x="1317.4479" y="-8" font-family="Times,serif" font-size="10.00" fill="#000000">updatedAt: DATE</text>
</g>
<!-- Markdown&#45;&gt;Clinic -->
<g id="edge8" class="edge">
<title>Markdown&#45;&gt;Clinic</title>
<path fill="none" stroke="#000000" stroke-width=".75" d="M1369.4479,-220.1927C1369.4479,-333.896 1369.4479,-509.6595 1369.4479,-619.1898"/>
</g>
<!-- Markdown&#45;&gt;Specialist -->
<g id="edge7" class="edge">
<title>Markdown&#45;&gt;Specialist</title>
<path fill="none" stroke="#000000" stroke-width=".75" d="M1426.5158,-128.5425C1498.7974,-152.0282 1621.6211,-191.936 1685.5917,-212.7214"/>
</g>
<!-- Markdown&#45;&gt;User -->
<g id="edge6" class="edge">
<title>Markdown&#45;&gt;User</title>
<path fill="none" stroke="#000000" stroke-width=".75" d="M1312.2355,-188.7461C1278.4005,-235.3159 1235.8004,-293.95 1202.5211,-339.7551"/>
</g>
<!-- Schedule -->
<g id="node7" class="node">
<title>Schedule</title>
<polygon fill="#add8e6" stroke="transparent" points=".5,-491.2443 .5,-513.2443 119.5,-513.2443 119.5,-491.2443 .5,-491.2443"/>
<polygon fill="none" stroke="#000000" points=".5,-491.2443 .5,-513.2443 119.5,-513.2443 119.5,-491.2443 .5,-491.2443"/>
<text text-anchor="start" x="41.6725" y="-500.2443" font-family="Times,serif" font-weight="bold" font-size="10.00" fill="#000000">Schedule</text>
<polygon fill="none" stroke="#000000" points=".5,-469.2443 .5,-491.2443 119.5,-491.2443 119.5,-469.2443 .5,-469.2443"/>
<text text-anchor="start" x="5.5" y="-478.2443" font-family="Times,serif" text-decoration="underline" font-size="10.00" fill="#000000">id</text>
<text text-anchor="start" x="13.279" y="-478.2443" font-family="Times,serif" font-size="10.00" fill="#000000">: NUMBER</text>
<polygon fill="none" stroke="#000000" points=".5,-447.2443 .5,-469.2443 119.5,-469.2443 119.5,-447.2443 .5,-447.2443"/>
<text text-anchor="start" x="5.433" y="-455.2443" font-family="Times,serif" font-size="10.00" fill="#000000">currentNumber: NUMBER</text>
<polygon fill="none" stroke="#000000" points=".5,-425.2443 .5,-447.2443 119.5,-447.2443 119.5,-425.2443 .5,-425.2443"/>
<text text-anchor="start" x="5.5" y="-433.2443" font-family="Times,serif" font-size="10.00" fill="#000000">maxNumber: NUMBER</text>
<polygon fill="none" stroke="#000000" points=".5,-403.2443 .5,-425.2443 119.5,-425.2443 119.5,-403.2443 .5,-403.2443"/>
<text text-anchor="start" x="5.5" y="-411.2443" font-family="Times,serif" font-size="10.00" fill="#000000">date: DATE</text>
<polygon fill="none" stroke="#000000" points=".5,-381.2443 .5,-403.2443 119.5,-403.2443 119.5,-381.2443 .5,-381.2443"/>
<text text-anchor="start" x="5.5" y="-389.2443" font-family="Times,serif" font-size="10.00" fill="#000000">doctorId: NUMBER</text>
<polygon fill="none" stroke="#000000" points=".5,-359.2443 .5,-381.2443 119.5,-381.2443 119.5,-359.2443 .5,-359.2443"/>
<text text-anchor="start" x="5.5" y="-368.2443" font-family="Times,serif" font-style="italic" text-decoration="underline" font-size="10.00" fill="#000000">timeType</text>
<text text-anchor="start" x="43.824" y="-368.2443" font-family="Times,serif" font-size="10.00" fill="#000000">: STRING</text>
<polygon fill="none" stroke="#000000" points=".5,-337.2443 .5,-359.2443 119.5,-359.2443 119.5,-337.2443 .5,-337.2443"/>
<text text-anchor="start" x="5.5" y="-345.2443" font-family="Times,serif" font-size="10.00" fill="#000000">createdAt: DATE</text>
<polygon fill="none" stroke="#000000" points=".5,-315.2443 .5,-337.2443 119.5,-337.2443 119.5,-315.2443 .5,-315.2443"/>
<text text-anchor="start" x="5.5" y="-323.2443" font-family="Times,serif" font-size="10.00" fill="#000000">updatedAt: DATE</text>
</g>
<!-- Schedule&#45;&gt;Allcode -->
<g id="edge9" class="edge">
<title>Schedule&#45;&gt;Allcode</title>
<path fill="none" stroke="#000000" stroke-width=".75" d="M125.243,-414.2443C253.9667,-414.2443 536.0106,-414.2443 643.0564,-414.2443"/>
<polygon fill="#000000" stroke="#000000" stroke-width=".75" points="125.2305,-414.2444 119.2306,-411.5443 122.2305,-414.2444 119.2305,-414.2443 119.2305,-414.2443 119.2305,-414.2443 122.2305,-414.2444 119.2305,-416.9443 125.2305,-414.2444 125.2305,-414.2444"/>
</g>
<!-- User&#45;&gt;Allcode -->
<g id="edge10" class="edge">
<title>User&#45;&gt;Allcode</title>
<path fill="none" stroke="#000000" stroke-width=".75" d="M1088.2407,-414.2443C993.026,-414.2443 809.9717,-414.2443 727.5034,-414.2443"/>
<polygon fill="#000000" stroke="#000000" stroke-width=".75" points="1088.3833,-414.2444 1094.3834,-416.9443 1091.3833,-414.2444 1094.3833,-414.2443 1094.3833,-414.2443 1094.3833,-414.2443 1091.3833,-414.2444 1094.3833,-411.5443 1088.3833,-414.2444 1088.3833,-414.2444"/>
</g>
</g>
</svg>
